# Blender v3.3.11 Release Candidate OBJ File: 'gnuchanos_ch_purple.blend'
# www.blender.org
mtllib gnuchanos_ch_purple_face.mtl
o head_face_Cube.006
v -0.000000 3.355149 0.502132
v -0.000000 2.361363 0.502132
v 0.481416 2.369112 0.502132
v 0.462282 2.361363 0.502132
v 0.488850 2.386660 0.502132
v 0.462823 3.355149 0.502132
v 0.481479 3.347514 0.502132
v 0.488850 3.329932 0.502132
v -0.481416 2.369112 0.502132
v -0.462282 2.361363 0.502132
v -0.488850 2.386660 0.502132
v -0.462823 3.355149 0.502132
v -0.481479 3.347514 0.502132
v -0.488850 3.329932 0.502132
vt 0.800989 0.256565
vt 0.814276 0.261809
vt 0.819438 0.273686
vt 0.819438 0.912103
vt 0.814320 0.924002
vt 0.801364 0.929169
vt 0.479968 0.929169
vt 0.479968 0.256565
vt 0.158948 0.256565
vt 0.158572 0.929169
vt 0.145617 0.924002
vt 0.140498 0.912103
vt 0.140498 0.273686
vt 0.145661 0.261810
vn 0.0000 0.0000 1.0000
usemtl face
s 1
f 4/1/1 3/2/1 5/3/1 8/4/1 7/5/1 6/6/1 1/7/1 2/8/1
f 10/9/1 2/8/1 1/7/1 12/10/1 13/11/1 14/12/1 11/13/1 9/14/1
