# Blender v3.6.0 OBJ File: ''
# www.blender.org
mtllib blender3-6.mtl
o Cube
v -3.677463 -3.677463 3.677463
v -3.677463 3.677463 -3.677463
v 3.677463 -3.677463 3.677463
v 3.677463 -3.677463 -3.677463
v 3.677463 3.677463 -3.677463
v 3.677463 3.677463 3.677463
v -3.677463 3.677463 3.677463
v -3.677463 -3.677463 -3.677463
v 3.677463 -2.218746 -3.677463
v 3.677463 2.218746 -3.677463
v 3.677463 -2.218746 3.677463
v 3.677463 2.218746 3.677463
v 0.000000 2.218746 3.677463
v 0.000000 -2.218746 3.677463
v 0.000000 2.218746 -3.677463
v 0.000000 -2.218746 -3.677463
vt 0.375000 0.750000
vt 0.424583 0.875000
vt 0.375000 1.000000
vt 0.424583 0.750000
vt 0.375000 0.500000
vt 0.424583 0.500000
vt 0.625000 0.500000
vt 0.875000 0.500000
vt 0.875000 0.750000
vt 0.625000 0.750000
vt 0.125000 0.500000
vt 0.125000 0.750000
vt 0.424583 0.375000
vt 0.625000 0.250000
vt 0.575417 0.375000
vt 0.575417 0.750000
vt 0.575417 0.875000
vt 0.375000 0.250000
vt 0.575417 0.500000
vt 0.625000 1.000000
vt 0.625000 0.000000
vt 0.375000 0.000000
vn 0.0000 0.0000 1.0000
vn 1.0000 0.0000 0.0000
vn 0.0000 1.0000 0.0000
vn 0.0000 -1.0000 0.0000
vn 0.0000 0.0000 -1.0000
vn -1.0000 0.0000 0.0000
usemtl None
s off
f 3/1/1 14/2/1 1/3/1
f 3/1/1 11/4/1 14/2/1
f 4/5/2 9/6/2 11/4/2 3/1/2
f 5/7/3 2/8/3 7/9/3 6/10/3
f 8/11/4 4/5/4 3/1/4 1/12/4
f 4/5/5 16/13/5 9/6/5
f 2/14/5 5/7/5 15/15/5
f 12/16/1 6/10/1 13/17/1
f 8/18/5 16/13/5 4/5/5
f 15/15/5 5/7/5 10/19/5
f 10/19/2 5/7/2 6/10/2 12/16/2
f 2/14/5 15/15/5 16/13/5 8/18/5
f 12/16/4 13/17/4 15/15/4 10/19/4
f 13/17/1 7/20/1 1/3/1 14/2/1
f 16/13/3 14/2/3 11/4/3 9/6/3
f 16/13/2 15/15/2 13/17/2 14/2/2
f 7/21/6 2/14/6 8/18/6 1/22/6
f 13/17/1 6/10/1 7/20/1
