# Blender v2.79 (sub 7) OBJ File: ''
# www.blender.org
mtllib rangeEngine_oldblender.mtl
o Cube_Cube.001
v -3.434604 -3.434604 3.434604
v -3.434604 3.434604 -3.434604
v 3.434604 -3.434604 -3.434604
v 3.434604 3.434604 3.434604
v 3.434604 -3.434604 3.434604
v 3.434604 3.434604 -3.434604
v -3.434604 3.434604 3.434604
v -3.434604 -3.434604 -3.434604
v 3.434604 -2.576343 -3.434604
v 3.434604 2.576343 -3.434604
v 3.434604 -2.576343 3.434604
v 3.434604 2.576343 3.434604
v 0.172907 2.576343 3.434604
v 0.172907 -2.576343 3.434604
v 0.172907 2.576343 -3.434604
v 0.172907 -2.576343 -3.434604
vn 0.0000 0.0000 1.0000
vn 1.0000 0.0000 0.0000
vn 0.0000 1.0000 0.0000
vn 0.0000 0.0000 -1.0000
vn 0.0000 -1.0000 0.0000
vn -1.0000 0.0000 0.0000
usemtl None
s off
f 5//1 14//1 1//1
f 3//2 9//2 11//2 5//2
f 12//1 4//1 13//1
f 6//3 2//3 7//3 4//3
f 3//4 16//4 9//4
f 10//2 6//2 4//2 12//2
f 15//4 6//4 10//4
f 13//1 7//1 1//1 14//1
f 12//5 13//5 15//5 10//5
f 7//6 2//6 8//6 1//6
f 13//1 4//1 7//1
f 2//4 15//4 16//4 8//4
f 9//3 16//3 14//3 11//3
f 2//4 6//4 15//4
f 8//4 16//4 3//4
f 8//5 3//5 5//5 1//5
f 5//1 11//1 14//1
f 14//2 16//2 15//2 13//2
