# Alias OBJ Model File
# Exported from SketchUp, (c) 2000-2012 Trimble Navigation Limited
# File units = centimeters

mtllib sketchup.mtl

g Mesh1 Model

usemtl FrontColor
v 0 0 -444.8
vt 0 175.118
vn 0 -1 -0
v 319.8 0 -444.8
vt -125.906 175.118
v 319.8 0 -0
vt -125.906 0
v 0 0 -0
vt 0 0
f 1/1/1 2/2/1 3/3/1 4/4/1 

vt -125.906 -1.55484e-13
vn -8.801e-33 8.87881e-16 -1
vt -1.54121e-30 -1.55484e-13
v 106.1 81.3073 -444.8
vt -41.7717 32.0107
v 319.8 81.3073 -444.8
vt -125.906 32.0107
f 2/5/2 1/6/2 5/7/2 6/8/2 

vt -175.118 52.6266
vn -0.608262 0.793737 1.75953e-18
vt -175.118 4.02081e-16
v 106.1 81.3073 -0
vt 1.20834e-16 52.6266
f 5/9/3 1/10/3 4/4/3 7/11/3 

vt 1.19152e-13 -8.57251e-31
vn 6.80407e-16 4.89527e-33 -1
v 0 307.5 -444.8
vt 1.19152e-13 121.063
v 106.1 231.607 -444.8
vt -41.7717 91.184
f 1/12/4 8/13/4 9/14/4 5/7/4 

vt -175.118 0
vn -1 0 -0
v 0 307.5 -0
vt 0 121.063
vt -175.118 121.063
f 1/15/5 4/4/5 10/16/5 8/17/5 

vt 41.7717 32.0107
vn 0 0 1
v 106.1 231.607 -0
vt 41.7717 91.184
f 7/18/6 11/19/6 10/16/6 4/4/6 

vt 0 91.184
vn 1 0 -0
vt 0 32.0107
vt 175.118 32.0107
vt 175.118 91.184
f 11/20/7 7/21/7 5/22/7 9/23/7 

vt 41.7717 0
vn 0 1 -0
v 319.8 81.3073 -0
vt 125.906 0
vt 125.906 175.118
vt 41.7717 175.118
f 7/24/8 12/25/8 6/26/8 5/27/8 

vt 125.906 32.0107
f 12/28/6 7/18/6 4/4/6 3/25/6 

vt 175.118 0
f 2/29/7 6/22/7 12/21/7 3/4/7 

v 319.8 231.607 -0
vt -41.7717 0
vt -41.7717 175.118
v 319.8 231.607 -444.8
f 13/3/1 11/30/1 9/31/1 14/2/1 

v 319.8 307.5 -0
vt 125.906 121.063
vt 125.906 91.184
f 15/32/6 10/16/6 11/19/6 13/33/6 

v 319.8 307.5 -444.8
f 16/26/8 8/1/8 10/4/8 15/25/8 

vt -125.906 91.184
vn 1.01016e-32 -9.51226e-16 -1
vt 1.76897e-30 121.063
vt -125.906 121.063
f 14/34/9 9/14/9 8/35/9 16/36/9 

vt 6.31656e-17 19.0744
vn -0.581781 -0.813345 8.79749e-19
vt 0 70.4322
vt -175.118 70.4322
vt -175.118 19.0744
f 11/37/10 10/38/10 8/39/10 9/40/10 

vt 175.118 121.063
f 13/20/7 14/23/7 16/41/7 15/16/7 

